<svg width="46" height="28" fill="none" xmlns="http://www.w3.org/2000/svg"><path id="Air" d="M28.2 3.44c0 .72.21 1.3.68 1.77.47.46 1.04.68 1.77.68.68 0 1.26-.22 1.72-.68.47-.47.72-1.05.72-1.77 0-.68-.25-1.26-.72-1.72-.46-.47-1.04-.72-1.72-.72-.73 0-1.3.25-1.77.72-.47.46-.68 1.04-.68 1.72ZM22.23 22.2l2.06 4.43h3.56L16.12 1.43h-3.39L1 26.63h3.56l2.05-4.43h15.62ZM8.12 18.96l6.3-13.61 6.3 13.61H8.12ZM38.61 8.63v2.7c.55-1.01 1.26-1.77 2.16-2.31.9-.54 1.98-.83 3.28-.83.29 0 .61.04.9.08l.86.11v3.27a7.92 7.92 0 0 0-.9-.14c-.29-.04-.57-.08-.9-.08-1 0-1.87.18-2.51.51-.69.32-1.23.79-1.66 1.37-.43.61-.72 1.33-.87 2.16-.18.86-.25 1.76-.25 2.77v8.39h-3.1v-18h2.99Zm-6.42 0H29.1v18h3.09v-18Z" fill="#FFF" fill-opacity="1" fill-rule="evenodd"/></svg>