<svg width="46.000000" height="28.000000" viewBox="0 0 46 28" fill="none" xmlns="http://www.w3.org/2000/svg" xmlns:xlink="http://www.w3.org/1999/xlink">
	<desc>
			Created with Pixso.
	</desc>
	<defs/>
	<path id="Air" d="M28.2 3.44C28.2 4.16 28.41 4.74 28.88 5.21C29.35 5.67 29.92 5.89 30.65 5.89C31.33 5.89 31.91 5.67 32.37 5.21C32.84 4.74 33.09 4.16 33.09 3.44C33.09 2.76 32.84 2.18 32.37 1.72C31.91 1.25 31.33 1 30.65 1C29.92 1 29.35 1.25 28.88 1.72C28.41 2.18 28.2 2.76 28.2 3.44ZM22.23 22.2L24.29 26.63L27.85 26.63L16.12 1.43L12.73 1.43L1 26.63L4.56 26.63L6.61 22.2L22.23 22.2ZM8.12 18.96L14.42 5.35L20.72 18.96L8.12 18.96ZM38.61 8.63L38.61 11.33C39.16 10.32 39.87 9.56 40.77 9.02C41.67 8.48 42.75 8.19 44.05 8.19C44.34 8.19 44.66 8.23 44.95 8.27L45.81 8.38L45.81 11.65C45.49 11.58 45.2 11.54 44.91 11.51C44.62 11.47 44.34 11.43 44.01 11.43C43.01 11.43 42.14 11.61 41.5 11.94C40.81 12.26 40.27 12.73 39.84 13.31C39.41 13.92 39.12 14.64 38.97 15.47C38.79 16.33 38.72 17.23 38.72 18.24L38.72 26.63L35.62 26.63L35.62 8.63L38.61 8.63ZM32.19 8.63L29.1 8.63L29.1 26.63L32.19 26.63L32.19 8.63Z" fill="#FFFFFF" fill-opacity="1.000000" fill-rule="evenodd"/>
</svg>
