<svg width="24.000000" height="24.000000" viewBox="0 0 24 24" fill="none" xmlns="http://www.w3.org/2000/svg" xmlns:xlink="http://www.w3.org/1999/xlink">
	<desc>
			Created with Pixso.
	</desc>
	<defs/>
	<path id="“" d="M2 21.48C2 20.36 2 19.24 2 18.12C2 16.95 2 15.8 2 14.69C2 11.09 2.51 8.27 3.53 6.21C4.56 4.16 6.36 3.09 8.92 3L10.26 5.73C8.81 5.87 7.8 6.57 7.25 7.83C6.73 9.04 6.48 10.98 6.48 13.63L10.19 13.63L10.19 21.48L2 21.48ZM14.32 21.48C14.32 20.36 14.32 19.24 14.32 18.12C14.32 16.95 14.32 15.8 14.32 14.69C14.32 11.09 14.83 8.27 15.85 6.21C16.88 4.16 18.68 3.09 21.25 3L22.57 5.73C21.13 5.87 20.12 6.57 19.57 7.83C19.05 9.04 18.8 10.98 18.8 13.63L22.51 13.63L22.51 21.48L14.32 21.48Z" fill="#2060F6" fill-opacity="1.000000" fill-rule="nonzero"/>
</svg>
