<svg width="32.000000" height="32.000000" viewBox="0 0 32 32" fill="none" xmlns="http://www.w3.org/2000/svg" xmlns:xlink="http://www.w3.org/1999/xlink">
	<desc>
			Created with Pixso.
	</desc>
	<defs/>
	<g opacity="0.000000">
		<path id="Vector" d="M32 32L0 32L0 0L32 0L32 32Z" fill="#000000" fill-opacity="1.000000" fill-rule="evenodd"/>
	</g>
	<path id="Vector" d="M22.66 4.66C22.66 4.49 22.59 4.32 22.47 4.19C22.34 4.07 22.17 4 22 4L18.66 4C16.98 3.91 15.34 4.5 14.09 5.62C12.84 6.75 12.09 8.32 12 10L12 13.59L8.66 13.59C8.48 13.59 8.32 13.66 8.19 13.79C8.07 13.91 8 14.08 8 14.26L8 17.73C8 17.91 8.07 18.08 8.19 18.2C8.32 18.33 8.48 18.4 8.66 18.4L12 18.4L12 27.33C12 27.5 12.07 27.67 12.19 27.8C12.32 27.92 12.48 28 12.66 28L16.66 28C16.84 28 17.01 27.92 17.13 27.8C17.26 27.67 17.33 27.5 17.33 27.33L17.33 18.4L20.82 18.4C20.97 18.4 21.12 18.35 21.23 18.26C21.35 18.17 21.44 18.05 21.48 17.9L22.44 14.43C22.46 14.34 22.46 14.23 22.44 14.13C22.42 14.03 22.38 13.94 22.32 13.86C22.26 13.78 22.18 13.71 22.09 13.66C22 13.62 21.9 13.6 21.8 13.59L17.33 13.59L17.33 10C17.36 9.66 17.52 9.36 17.76 9.14C18.01 8.91 18.33 8.79 18.66 8.8L22 8.8C22.17 8.8 22.34 8.73 22.47 8.6C22.59 8.48 22.66 8.31 22.66 8.13L22.66 4.66Z" fill="#FFFFFF" fill-opacity="1.000000" fill-rule="nonzero"/>
</svg>
