<svg width="32.000000" height="32.000000" viewBox="0 0 32 32" fill="none" xmlns="http://www.w3.org/2000/svg" xmlns:xlink="http://www.w3.org/1999/xlink">
	<desc>
			Created with Pixso.
	</desc>
	<defs>
		<clipPath id="clip22904_1940">
			<rect id="instagram" rx="0.000000" width="31.000000" height="31.000000" transform="translate(0.500000 0.500000)" fill="white" fill-opacity="0"/>
		</clipPath>
	</defs>
	<g clip-path="url(#clip22904_1940)">
		<path id="Vector" d="M16 9.84C12.59 9.84 9.85 12.59 9.85 16C9.85 19.4 12.59 22.15 16 22.15C19.4 22.15 22.15 19.4 22.15 16C22.15 12.59 19.4 9.84 16 9.84ZM16 20C13.8 20 12 18.2 12 16C12 13.79 13.79 12 16 12C18.2 12 20 13.79 20 16C20 18.2 18.2 20 16 20ZM23.83 9.59C23.83 10.39 23.19 11.02 22.4 11.02C21.6 11.02 20.97 10.38 20.97 9.59C20.97 8.8 21.61 8.16 22.4 8.16C23.19 8.16 23.83 8.8 23.83 9.59ZM27.91 11.05C27.82 9.12 27.38 7.42 25.97 6.02C24.57 4.61 22.87 4.18 20.94 4.08C18.96 3.97 13.03 3.97 11.05 4.08C9.13 4.17 7.42 4.61 6.02 6.01C4.61 7.41 4.17 9.12 4.08 11.04C3.97 13.02 3.97 18.96 4.08 20.94C4.17 22.87 4.61 24.57 6.02 25.97C7.42 27.38 9.12 27.81 11.05 27.91C13.03 28.02 18.96 28.02 20.94 27.91C22.87 27.82 24.57 27.38 25.97 25.97C27.37 24.57 27.82 22.87 27.91 20.94C28.02 18.96 28.02 13.03 27.91 11.05ZM25.35 23.07C24.93 24.12 24.12 24.93 23.07 25.35C21.49 25.98 17.75 25.83 16 25.83C14.25 25.83 10.5 25.97 8.92 25.35C7.87 24.93 7.07 24.12 6.64 23.07C6.02 21.49 6.16 17.74 6.16 16C6.16 14.25 6.02 10.5 6.64 8.92C7.06 7.87 7.87 7.06 8.92 6.64C10.5 6.01 14.25 6.16 16 6.16C17.75 6.16 21.5 6.02 23.07 6.64C24.12 7.06 24.93 7.87 25.35 8.92C25.98 10.5 25.83 14.25 25.83 16C25.83 17.74 25.98 21.5 25.35 23.07Z" fill="#FFFFFF" fill-opacity="1.000000" fill-rule="nonzero"/>
	</g>
</svg>
