<svg width="32.000000" height="32.000000" viewBox="0 0 32 32" fill="none" xmlns="http://www.w3.org/2000/svg" xmlns:xlink="http://www.w3.org/1999/xlink">
	<desc>
			Created with Pixso.
	</desc>
	<defs/>
	<g opacity="0.000000">
		<path id="Vector" d="M0 0L32 0L32 32L0 32L0 0Z" fill="#000000" fill-opacity="1.000000" fill-rule="nonzero"/>
	</g>
	<path id="Vector" d="M10.77 26.66C12.74 26.73 14.7 26.4 16.55 25.69C18.39 24.99 20.07 23.92 21.49 22.55C22.91 21.18 24.05 19.54 24.82 17.73C25.6 15.92 26.01 13.97 26.02 12C26.92 10.88 27.6 9.59 28 8.21C28.02 8.1 28.02 7.98 27.99 7.88C27.95 7.77 27.89 7.67 27.8 7.6C27.71 7.53 27.61 7.49 27.5 7.47C27.38 7.46 27.27 7.48 27.17 7.53C26.69 7.76 26.16 7.83 25.65 7.74C25.13 7.65 24.66 7.4 24.29 7.02C23.82 6.51 23.25 6.1 22.62 5.81C21.99 5.52 21.31 5.36 20.62 5.33C19.92 5.31 19.23 5.43 18.58 5.68C17.94 5.93 17.35 6.31 16.85 6.8C16.17 7.46 15.67 8.28 15.4 9.19C15.13 10.1 15.1 11.07 15.32 12C10.85 12.26 7.78 10.14 5.33 7.24C5.25 7.15 5.16 7.09 5.05 7.06C4.94 7.03 4.83 7.03 4.72 7.07C4.62 7.1 4.52 7.17 4.45 7.25C4.38 7.34 4.34 7.44 4.33 7.56C3.86 10.15 4.2 12.82 5.29 15.22C6.39 17.61 8.19 19.61 10.46 20.96C8.94 22.7 6.8 23.79 4.5 24C4.38 24.02 4.26 24.08 4.17 24.16C4.08 24.25 4.03 24.37 4.01 24.49C3.99 24.61 4.01 24.74 4.06 24.85C4.12 24.96 4.2 25.06 4.32 25.12C6.32 26.12 8.53 26.65 10.77 26.66Z" fill="#FFFFFF" fill-opacity="1.000000" fill-rule="nonzero"/>
</svg>
